**ABCDEFGHIJKLMNOPQRSTUVWXYZabcdefghijklmnopqrstuvwxyz**************************
**PARASOLID !"#$%&'()*+,-./:;<=>?@[\]^_`{|}~0123456789**************************
**PART1;
MC=unknown;
MC_MODEL=unknown;
MC_ID=unknown;
OS=unknown;
OS_RELEASE=unknown;
FRU=Parasolid 37.1.212;
APPL=Onshape;
SITE=unknown;
USER=unknown;
FORMAT=text;
GUISE=transmit;
KEY=BTGapi::writeModels_.xmt;
FILE=BTGapi::writeModels_.xmt;
DATE=2026-02-07T04:20:28 (UTC);
**PART2;
SCH=SCH_3701212_37102;
USFLD_SIZE=0;
**PART3;
**END_OF_HEADER*****************************************************************
T51 : TRANSMIT FILE created by modeller version 370121223 SCH_3701212_37102_1300
6239 0 12 36 CCCI7 lattice222 0 CCCI4 mesh1006 0 I8 polyline1008 0 CCCCCCCDI5 ow
ner1040 0 CCCI16 boundary_lattice222 0 CCCI13 boundary_mesh1006 0 I17 boundary_p
olyline1008 0 CCCA16 index_map_offset0 0 1 dA9 index_map82 0 A17 node_id_index_m
ap82 0 A20 schema_embedding_map82 0 A5 child12 0 A14 lowest_node_id0 0 1 dA16 me
sh_offset_data206 0 Z1 187 2 3 0 0 0 0 0 0 0 1e3 1e-8 0 4 0 1 0 1 2 5 0 6 7 8 0
 0 9 10 11 0 0 0 0 0 0 0 81 255 1 2 181 12 1 13 0 0 0 14 70 11 CI9 list_type0 0
 1 uI10 notransmit0 0 1 lCCCDCCDI12 finger_index0 0 1 dI12 finger_block1012 0 CZ
3 0 4 T1 0 0 5 20 1 15 15 13 255 5 137 0 1 0 16 0 0 17 0 50 255 6 132 0 16 18 0
 0 +.06 -693889390390723e-32 .04 1 -578241158658936e-31 0 578241158658936e-31 1
 0 30 255 7 136 0 10 19 0 0 +.06 .06 .04 0 0 -1 29 255 8 113 0 20 21 0 .06 -.06
 0 19 9 CCCCCCI5 frame230 0 CA5 owner12 0 Z9 48 0 1 17 0 22 0 V0 16 255 10 120 2
3 ?24 0 25 7 0 0 1 18 255 11 42 27 30 0 29 26 ?1 81 1 27 157 28 11 0 0 34 35 32
 17 255 30 0 33 31 38 11 40 36 0 39 -18 29 37 37 41 11 45 43 ?1 29 26 44 0 11 43
 42 .06 -.06 .04 29 43 39 0 29 44 26 -.06 -.06 .04 29 42 116 0 46 26 50 .06 .06
 0 18 46 104 48 24 47 0 42 ?1 29 50 115 0 47 42 21 -.06 .06 0 18 47 100 49 51 55
 46 50 ?1 29 21 114 0 55 50 8 -.06 -.06 0 18 55 96 35 52 20 47 21 ?1 81 1 35 158
 28 55 0 0 27 37 53 17 52 0 33 38 31 55 54 57 0 60 +18 20 92 34 40 59 55 8 ?1 81
 1 34 156 28 20 0 0 56 27 58 17 40 0 61 62 39 20 30 36 0 64 +18 59 27 63 65 45 2
0 66 ?1 81 1 63 153 28 59 0 0 48 49 70 17 65 0 61 39 62 59 24 10 0 68 -18 45 32
 56 67 29 59 44 ?1 29 66 29 0 59 0 44 .06 .06 .04 29 44 34 0 45 66 43 -.06 .06 .
04 81 1 56 155 28 45 0 0 49 34 69 17 67 0 75 41 71 45 68 73 0 72 +15 255 75 6 0
 71 74 0 17 41 0 75 76 67 29 80 77 0 54 +17 71 0 75 67 76 59 39 78 0 0 -17 68 0
 79 24 72 59 67 73 0 71 -16 73 12 81 ?67 77 78 85 0 0 1 17 72 0 79 68 51 45 83 2
5 0 80 -15 79 125 0 51 82 0 17 51 0 79 72 24 47 84 89 0 83 +17 83 0 90 60 80 47
 72 25 0 87 +16 25 119 88 ?83 10 57 19 0 0 1 17 80 0 90 83 54 45 41 77 0 0 -15 9
0 123 0 60 86 0 17 54 0 90 80 60 29 52 57 0 31 -16 77 17 93 ?41 95 73 91 0 0 1 8
1 1 93 171 28 77 0 0 94 92 96 16 95 22 100 ?31 36 77 98 0 0 1 30 91 19 0 77 85 9
8 0 +-.06 693889390390723e-32 .04 -578241158658936e-31 -1 0 30 85 14 0 73 97 91
 0 +0 .06 .04 -1 0 0 30 98 24 0 95 91 99 0 +-693889390390723e-32 -.06 .04 -1 0 0
 30 99 112 0 101 98 105 0 +.06 -693889390390723e-32 0 -578241158658936e-31 -1 0
 16 101 88 103 ?64 89 0 99 0 0 1 30 105 111 0 89 99 102 0 +0 .06 0 -1 0 0 16 89
 84 104 ?51 106 101 105 0 0 1 30 102 110 0 106 105 110 0 +-.06 693889390390723e-
32 0 -578241158658936e-31 -1 0 16 106 80 94 ?60 107 89 102 0 0 1 30 110 109 0 10
7 102 108 0 +-693889390390723e-32 -.06 0 -1 0 0 16 107 76 109 ?112 78 106 110 0
 0 1 30 108 133 0 36 110 115 0 +.06 -.06 .04 0 0 -1 16 36 117 114 ?40 57 95 108
 0 0 1 30 115 134 0 57 108 19 0 +-.06 -.06 .04 0 0 -1 16 57 118 111 ?52 25 36 11
5 0 0 1 30 19 135 0 25 115 7 0 +-.06 .06 .04 0 0 -1 81 1 111 163 28 57 0 0 114 1
04 113 80 7 CCCCCDI12 legal_owners0 17 1 lCZ1 28 116 117 9000 0 0 0 0 3 6 0 0 0
 FFTFTFTTFFFFFFFFF1 81 1 114 162 28 36 0 0 88 111 119 81 1 104 164 28 89 0 0 111
 81 118 82 255 3 113 6 3 1 81 1 81 165 28 73 0 0 104 109 120 82 3 118 6 4 1 81 1
 109 166 28 107 0 0 81 100 121 82 3 120 6 5 1 81 1 100 167 28 95 0 0 109 103 125
 82 3 121 6 6 1 81 1 103 168 28 101 0 0 100 123 122 82 3 125 6 7 1 81 1 123 169
 28 78 0 0 103 94 124 82 3 122 6 8 1 16 78 7 123 ?39 73 107 97 0 0 1 81 1 94 170
 28 106 0 0 123 93 130 82 3 124 6 9 1 82 3 130 6 10 1 17 39 0 61 40 65 11 71 78
 0 76 +30 97 9 0 78 0 85 0 +.06 -693889390390723e-32 .04 -578241158658936e-31 -1
 0 15 61 127 0 62 16 0 17 76 0 75 71 41 11 31 95 0 0 -17 31 0 33 52 30 29 76 95
 0 0 +15 33 121 0 38 126 0 17 38 0 33 30 52 20 112 107 0 0 -14 255 126 122 128 ?
74 86 33 5 127 +0 0 74 86 22 81 1 128 185 129 126 131 0 135 132 133 14 74 1 132
 ?134 126 75 5 136 +0 0 134 126 22 14 86 124 135 ?126 82 90 5 140 -0 0 126 82 22
 50 127 129 0 126 138 140 0 +-693889390390723e-32 -.06 .04 0 -1 0 0 0 -1 13 22 4
9 0 0 0 0 0 0 9 16 14 16 128 137 ?82 0 61 5 6 +0 0 82 0 22 81 1 137 182 129 16 1
39 0 0 144 145 14 82 126 144 ?86 16 79 5 18 -0 0 86 16 22 81 1 144 183 129 82 92
 0 137 135 142 50 18 131 0 82 140 6 0 +0 .06 .04 0 -1 0 0 0 -1 50 140 130 0 86 1
27 18 0 +-.06 693889390390723e-32 .04 1 -578241158658936e-31 0 578241158658936e-
31 1 0 80 1 129 0 143 8001 0 0 0 0 3 5 0 0 0 FFFFTFTFFFFFFFFFF2 81 1 92 172 28 8
2 0 144 93 141 148 81 1 135 184 129 86 150 0 144 128 146 83 255 3 142 .615686274
509804 .811764705882353 .929411764705882 81 1 150 177 28 86 0 135 139 149 147 83
 3 146 .615686274509804 .811764705882353 .929411764705882 81 1 139 176 28 16 0 1
37 131 150 151 81 1 149 178 28 1 0 155 150 0 153 82 3 147 6 5 2 81 1 155 179 152
 1 149 13 0 0 154 82 3 153 6 0 3 80 1 152 156 160 8038 0 0 0 0 0 0 0 0 0 TTTTTTT
TTTTTTFTFT10 81 1 13 180 156 1 155 2 0 0 158 98 255 6 154 80 97 114 116 32 49 80
 1 156 157 159 8017 0 0 0 0 0 0 0 0 0 TTTTTTTTTTTTTFTFT3 84 255 6 158 Part 179 2
55 13 159 SDL/TYSA_NAME79 14 160 SDL/TYSA_UNAME81 1 131 175 28 126 0 128 161 139
 165 82 3 151 6 4 2 81 1 161 174 28 74 0 132 141 131 162 82 3 165 6 3 2 81 1 132
 186 129 74 161 0 128 163 164 81 1 141 173 28 134 0 163 92 161 167 82 3 162 6 2
 2 14 134 68 163 ?0 74 170 5 138 -0 0 0 74 22 81 1 163 187 129 134 141 0 132 0 1
69 82 3 167 6 1 2 83 3 169 .615686274509804 .811764705882353 .929411764705882 15
 170 75 0 64 134 0 50 138 108 0 134 136 127 0 +-1387778780781446e-32 0 0 0 0 1 1
 0 0 50 136 3 0 74 0 138 0 +-1387778780781446e-32 0 .04 0 0 1 1 0 0 17 64 0 170
 112 84 20 62 101 0 38 +17 112 0 170 87 64 55 38 107 0 0 +17 84 0 170 64 87 46 5
1 89 0 62 -17 62 0 61 65 40 46 64 101 0 0 -17 87 0 170 84 112 47 60 106 0 0 -17
 60 0 90 54 83 55 87 106 0 112 +83 3 164 .615686274509804 .811764705882353 .9294
11764705882 82 3 148 6 0 2 79 15 143 SDL/TYSA_COLOUR83 3 145 .615686274509804 .8
11764705882353 .929411764705882 83 3 133 .615686274509804 .811764705882353 .9294
11764705882 81 1 88 161 28 25 0 0 23 114 166 82 3 119 6 2 1 81 1 23 160 28 10 0
 0 37 88 168 82 3 166 6 1 1 81 1 37 159 28 29 0 0 35 23 171 82 3 168 6 0 1 82 3
 171 6 7 0 79 9 117 BTI/DetId82 3 96 6 11 1 17 24 0 79 51 68 46 65 10 0 84 +81 1
 49 154 28 47 0 0 63 56 172 82 3 69 6 3 0 82 3 172 6 2 0 81 1 48 152 28 46 0 0 0
 63 174 82 3 70 6 1 0 82 3 174 6 0 0 82 3 58 6 4 0 82 3 53 6 6 0 82 3 32 6 5 0 1
9 17 138 0 1 0 9 5 0 S0 74 4 CI16 index_map_offset0 0 1 dCCZ20 15 5 0 0 149 155
 13 2 163 0 0 0 0 0 0 0 0 0 0 0 0 0 0 0 80 1 12 129 173 8040 0 0 0 0 3 5 0 0 0 T
TTFFFFFFFFFFFFFF2 83 3 14 .615686274509804 .811764705882353 .929411764705882 79
 17 173 SDL/TYSA_COLOUR_21 0 
